<?xml version="1.0" standalone="no"?>
<!DOCTYPE svg PUBLIC "-//W3C//DTD SVG 20010904//EN"
 "http://www.w3.org/TR/2001/REC-SVG-20010904/DTD/svg10.dtd">
<svg version="1.0" xmlns="http://www.w3.org/2000/svg"
 width="400.000000pt" height="400.000000pt" viewBox="0 0 400.000000 400.000000"
 preserveAspectRatio="xMidYMid meet">
<metadata>
Created by potrace 1.16, written by Peter Selinger 2001-2019
</metadata>
<g transform="translate(0.000000,400.000000) scale(0.100000,-0.100000)"
fill="#000000" stroke="none">
<path d="M1750 3889 c-803 -103 -1452 -703 -1614 -1491 -37 -179 -47 -432 -26
-608 47 -375 192 -707 440 -1003 263 -314 657 -543 1081 -629 100 -20 143 -23
354 -23 211 0 254 3 355 23 762 154 1335 721 1498 1482 24 116 26 143 27 370
0 218 -3 258 -23 360 -163 802 -792 1401 -1593 1515 -112 16 -390 18 -499 4z
m425 -260 c211 -26 455 -109 631 -214 415 -249 693 -649 780 -1120 28 -151 26
-431 -4 -583 -66 -331 -212 -603 -451 -843 -240 -239 -511 -384 -843 -451
-151 -30 -431 -33 -583 -4 -228 42 -473 144 -655 274 -117 83 -287 249 -368
360 -481 654 -415 1541 157 2113 214 214 463 355 758 430 186 47 392 61 578
38z"/>
<path d="M2445 3151 c-50 -30 -68 -58 -73 -110 -8 -89 53 -151 150 -151 83 0
142 58 142 139 0 109 -126 180 -219 122z"/>
<path d="M1520 2943 c-64 -25 -83 -113 -34 -152 63 -49 156 -11 156 63 0 61
-68 110 -122 89z"/>
<path d="M1729 2901 c-31 -25 -30 -88 1 -113 32 -26 86 -23 115 7 30 30 32 64
4 99 -25 32 -84 36 -120 7z"/>
<path d="M1201 2884 c-26 -22 -31 -33 -31 -71 0 -63 40 -103 103 -103 104 0
150 110 76 179 -34 32 -108 29 -148 -5z"/>
<path d="M1930 2840 c-25 -25 -26 -72 -2 -93 25 -23 85 -22 105 1 39 43 5 112
-53 112 -17 0 -39 -9 -50 -20z"/>
<path d="M2503 2776 c-39 -18 -73 -70 -73 -112 0 -48 38 -97 88 -113 83 -26
163 28 166 110 1 43 -18 83 -50 104 -34 22 -94 27 -131 11z"/>
<path d="M2793 2707 c-32 -30 -36 -40 -36 -80 0 -56 23 -94 68 -113 49 -20 87
-17 126 9 58 39 74 98 44 157 -20 39 -63 60 -120 60 -37 0 -52 -6 -82 -33z"/>
<path d="M1548 2675 c-86 -48 -54 -165 45 -165 67 0 109 51 93 115 -12 48 -90
77 -138 50z"/>
<path d="M1772 2637 c-48 -51 -12 -127 61 -127 48 0 77 28 77 75 0 47 -29 75
-78 75 -27 0 -45 -7 -60 -23z"/>
<path d="M1239 2621 c-23 -23 -29 -38 -29 -71 0 -62 41 -100 107 -100 56 0 85
17 103 59 31 75 -17 141 -102 141 -41 0 -54 -5 -79 -29z"/>
<path d="M1974 2574 c-20 -19 -24 -31 -19 -52 11 -48 42 -63 98 -49 51 14 56
91 8 116 -32 18 -60 13 -87 -15z"/>
<path d="M965 2540 c-88 -36 -98 -172 -15 -215 106 -55 223 35 187 143 -21 64
-106 100 -172 72z"/>
<path d="M2465 2448 c-90 -49 -63 -182 40 -194 104 -13 164 99 91 172 -27 27
-42 34 -72 34 -22 0 -48 -6 -59 -12z"/>
<path d="M2782 2401 c-61 -39 -67 -118 -11 -165 70 -59 178 -13 179 76 0 83
-96 133 -168 89z"/>
<path d="M1670 2387 c-33 -17 -53 -60 -45 -97 13 -57 84 -87 138 -58 34 17 46
39 47 80 0 66 -76 107 -140 75z"/>
<path d="M1933 2372 c-29 -4 -63 -47 -63 -79 0 -35 42 -73 82 -73 40 1 64 17
77 53 23 59 -27 110 -96 99z"/>
<path d="M1388 2355 c-65 -36 -73 -122 -17 -169 49 -41 141 -28 169 23 48 91
-62 197 -152 146z"/>
<path d="M3027 2296 c-47 -43 -48 -106 -2 -152 19 -19 34 -24 75 -24 44 0 56
5 81 29 23 23 29 38 29 71 0 33 -6 48 -29 71 -40 39 -114 42 -154 5z"/>
<path d="M2097 2292 c-22 -25 -21 -75 1 -95 42 -39 122 -7 122 48 0 56 -86 88
-123 47z"/>
<path d="M1056 2229 c-92 -80 -28 -217 97 -206 89 8 140 91 103 169 -21 44
-63 68 -120 68 -36 0 -52 -6 -80 -31z"/>
<path d="M2384 2191 c-32 -14 -54 -51 -54 -89 0 -80 101 -112 162 -52 26 27
30 36 25 67 -4 20 -15 45 -25 55 -21 22 -78 31 -108 19z"/>
<path d="M2712 2149 c-22 -7 -38 -20 -49 -43 -31 -66 9 -126 84 -126 103 0
132 127 38 166 -19 8 -36 14 -37 13 -2 0 -18 -5 -36 -10z"/>
<path d="M1682 2064 c-29 -20 -30 -74 -2 -99 44 -40 120 -10 120 47 0 57 -68
88 -118 52z"/>
<path d="M785 2063 c-39 -10 -84 -53 -96 -92 -24 -81 17 -159 97 -180 75 -20
143 10 175 77 55 112 -49 226 -176 195z"/>
<path d="M2939 2031 c-56 -57 -25 -137 58 -148 37 -5 45 -2 73 25 40 40 41 88
4 126 -38 38 -95 36 -135 -3z"/>
<path d="M2253 1988 c-32 -16 -48 -61 -34 -97 28 -66 127 -66 150 1 25 70 -47
130 -116 96z"/>
<path d="M2560 1930 c-20 -20 -27 -74 -12 -97 4 -6 20 -18 36 -27 76 -39 155
64 93 122 -30 29 -89 30 -117 2z"/>
<path d="M1750 1903 c-57 -22 -70 -96 -24 -132 76 -60 177 35 117 108 -19 22
-67 34 -93 24z"/>
<path d="M2822 1837 c-27 -29 -30 -87 -4 -109 79 -69 191 34 117 107 -32 33
-83 34 -113 2z"/>
<path d="M2097 1832 c-39 -43 -5 -112 53 -112 59 0 94 76 52 113 -25 23 -85
22 -105 -1z"/>
<path d="M1492 1828 c-45 -22 -41 -92 7 -120 29 -16 31 -16 63 6 45 30 50 75
12 105 -29 23 -48 25 -82 9z"/>
<path d="M2427 1798 c-28 -22 -32 -73 -8 -97 27 -27 82 -28 104 -3 22 25 21
75 -1 95 -22 20 -71 22 -95 5z"/>
<path d="M1844 1710 c-58 -23 -70 -95 -25 -141 60 -60 160 -23 161 59 0 66
-71 109 -136 82z"/>
<path d="M2686 1697 c-33 -33 -33 -61 -1 -92 47 -48 115 -19 115 49 0 38 -14
53 -58 62 -25 5 -36 1 -56 -19z"/>
<path d="M1262 1647 c-36 -38 -27 -82 22 -102 21 -9 38 -10 55 -3 32 12 41 25
41 65 0 59 -76 85 -118 40z"/>
<path d="M1520 1640 c-12 -12 -20 -33 -20 -55 0 -47 29 -75 78 -75 74 0 108
75 57 125 -31 32 -86 34 -115 5z"/>
<path d="M2008 1515 c-35 -20 -48 -44 -48 -90 0 -47 13 -71 50 -90 60 -31 131
-8 156 52 17 40 7 89 -26 118 -26 24 -98 29 -132 10z"/>
<path d="M1324 1486 c-51 -23 -60 -81 -19 -121 50 -51 135 -17 135 54 0 62
-56 94 -116 67z"/>
<path d="M1620 1450 c-47 -47 -36 -115 22 -143 32 -16 43 -17 73 -7 67 22 88
98 40 145 -32 32 -105 35 -135 5z"/>
<path d="M2274 1350 c-65 -26 -93 -116 -55 -174 27 -40 57 -55 113 -56 57 0
102 33 119 89 28 95 -79 181 -177 141z"/>
<path d="M1418 1295 c-48 -27 -56 -106 -13 -142 60 -52 155 -14 155 61 0 48
-8 65 -41 81 -35 19 -66 18 -101 0z"/>
<path d="M1833 1283 c-73 -15 -99 -119 -44 -174 40 -40 105 -41 150 -3 27 22
31 32 31 74 0 38 -5 53 -26 74 -15 14 -32 26 -38 26 -6 0 -20 2 -31 4 -11 2
-30 2 -42 -1z"/>
<path d="M2599 1207 c-93 -62 -87 -189 12 -239 129 -66 272 70 199 190 -44 71
-143 95 -211 49z"/>
<path d="M1588 1103 c-55 -35 -64 -105 -19 -155 26 -29 35 -33 81 -33 46 0 55
4 81 33 42 46 40 93 -5 138 -27 27 -42 34 -72 34 -22 0 -51 -8 -66 -17z"/>
<path d="M2084 1109 c-53 -15 -79 -53 -79 -114 0 -60 19 -89 74 -112 47 -20
104 -9 141 29 62 61 29 173 -58 198 -42 11 -37 11 -78 -1z"/>
</g>
</svg>
